<svg width="245" height="33" viewBox="0 0 245 33" fill="none" xmlns="http://www.w3.org/2000/svg">
<g filter="url(#filter0_i_5_78)">
<path d="M28.472 31.325C21.452 32.075 15.002 32.45 9.12197 32.45C6.18197 32.45 4.02197 31.76 2.64197 30.38C1.26197 29 0.571973 26.84 0.571973 23.9V9.5C0.571973 6.35 1.27697 4.07 2.68697 2.66C4.12697 1.22 6.42197 0.499998 9.57197 0.499998H25.772V6.8H11.372C9.57197 6.8 8.67197 7.7 8.67197 9.5V23.9C8.67197 24.59 8.86697 25.145 9.25697 25.565C9.67697 25.955 10.232 26.15 10.922 26.15C14.372 26.15 17.522 26.075 20.372 25.925V19.4H14.522V14H28.472V31.325ZM41.9808 26.15C43.5708 26.15 45.3708 25.85 47.3808 25.25V22.55H40.8558C40.4058 22.55 40.0308 22.7 39.7308 23C39.4308 23.3 39.2808 23.675 39.2808 24.125V24.575C39.2808 25.025 39.4308 25.4 39.7308 25.7C40.0308 26 40.4058 26.15 40.8558 26.15H41.9808ZM33.6558 8.6C39.1458 8 44.0958 7.7 48.5058 7.7C50.5458 7.7 52.1808 8.315 53.4108 9.545C54.6408 10.775 55.2558 12.41 55.2558 14.45V32H48.2808L47.8308 29.75C46.4208 30.68 44.9658 31.37 43.4658 31.82C41.9958 32.24 40.7508 32.45 39.7308 32.45H38.1558C36.1158 32.45 34.4808 31.835 33.2508 30.605C32.0208 29.375 31.4058 27.74 31.4058 25.7V23.675C31.4058 21.635 32.0208 20 33.2508 18.77C34.4808 17.54 36.1158 16.925 38.1558 16.925H47.3808V15.125C47.3808 14.675 47.2308 14.3 46.9308 14C46.6308 13.7 46.2558 13.55 45.8058 13.55C43.8558 13.55 41.6958 13.64 39.3258 13.82C36.9858 14 35.0958 14.135 33.6558 14.225V8.6ZM75.2685 7.7C77.6985 7.7 79.5735 8.6 80.8935 10.4C82.2735 9.47 83.7585 8.795 85.3485 8.375C86.9685 7.925 88.4085 7.7 89.6685 7.7H90.1185C92.1585 7.7 93.7935 8.315 95.0235 9.545C96.2535 10.775 96.8685 12.41 96.8685 14.45V32H88.9935V15.8C88.9935 15.35 88.8435 14.975 88.5435 14.675C88.2435 14.375 87.8685 14.225 87.4185 14.225H87.1935C85.8435 14.225 84.1185 14.525 82.0185 15.125V32H74.1435V15.8C74.1435 15.35 73.9935 14.975 73.6935 14.675C73.3935 14.375 73.0185 14.225 72.5685 14.225H72.3435C70.9935 14.225 69.2685 14.525 67.1685 15.125V32H59.2935V8.15H66.2685L66.7185 10.4C68.1285 9.47 69.5685 8.795 71.0385 8.375C72.5385 7.925 73.7985 7.7 74.8185 7.7H75.2685ZM110.135 13.325C108.935 13.325 108.335 13.925 108.335 15.125V17.6H115.985V15.125C115.985 13.925 115.385 13.325 114.185 13.325H110.135ZM122.96 31.55C117.17 32.15 111.92 32.45 107.21 32.45C105.17 32.45 103.535 31.835 102.305 30.605C101.075 29.375 100.46 27.74 100.46 25.7V14.9C100.46 12.65 101.09 10.895 102.35 9.635C103.64 8.345 105.41 7.7 107.66 7.7H116.66C118.91 7.7 120.665 8.345 121.925 9.635C123.215 10.895 123.86 12.65 123.86 14.9V23.225H108.335V25.025C108.335 25.475 108.485 25.85 108.785 26.15C109.085 26.45 109.46 26.6 109.91 26.6C112.88 26.6 117.23 26.375 122.96 25.925V31.55ZM141.617 14.675C139.727 14.675 137.777 15.125 135.767 16.025V32H127.892V8.15H134.867L135.317 11.075C137.897 8.825 140.597 7.7 143.417 7.7H145.442V14.675H141.617ZM148.095 25.475C156.315 25.925 161.88 26.15 164.79 26.15C165.48 26.15 166.02 25.955 166.41 25.565C166.83 25.145 167.04 24.59 167.04 23.9V19.85H156.69C153.54 19.85 151.245 19.145 149.805 17.735C148.395 16.295 147.69 14 147.69 10.85V9.5C147.69 6.35 148.395 4.07 149.805 2.66C151.245 1.22 153.54 0.499998 156.69 0.499998H172.485V6.8H158.49C156.69 6.8 155.79 7.7 155.79 9.5V10.4C155.79 12.2 156.69 13.1 158.49 13.1H166.59C169.53 13.1 171.69 13.79 173.07 15.17C174.45 16.55 175.14 18.71 175.14 21.65V23.9C175.14 26.84 174.45 29 173.07 30.38C171.69 31.76 169.53 32.45 166.59 32.45C165.06 32.45 163.44 32.42 161.73 32.36L157.59 32.18C154.53 32.03 151.365 31.82 148.095 31.55V25.475ZM188.637 9.05V32H180.762V15.125H177.387V9.05H188.637ZM180.762 0.0499983H188.637V6.35H180.762V0.0499983ZM210.026 32L209.576 29.75C208.166 30.68 206.711 31.37 205.211 31.82C203.741 32.24 202.496 32.45 201.476 32.45H199.451C197.411 32.45 195.776 31.835 194.546 30.605C193.316 29.375 192.701 27.74 192.701 25.7V15.35C192.701 13.1 193.331 11.345 194.591 10.085C195.881 8.795 197.651 8.15 199.901 8.15H209.126V0.499998H217.001V32H210.026ZM203.726 25.925C205.316 25.925 207.116 25.625 209.126 25.025V14.225H202.376C201.176 14.225 200.576 14.825 200.576 16.025V24.35C200.576 24.8 200.726 25.175 201.026 25.475C201.326 25.775 201.701 25.925 202.151 25.925H203.726ZM230.721 13.325C229.521 13.325 228.921 13.925 228.921 15.125V17.6H236.571V15.125C236.571 13.925 235.971 13.325 234.771 13.325H230.721ZM243.546 31.55C237.756 32.15 232.506 32.45 227.796 32.45C225.756 32.45 224.121 31.835 222.891 30.605C221.661 29.375 221.046 27.74 221.046 25.7V14.9C221.046 12.65 221.676 10.895 222.936 9.635C224.226 8.345 225.996 7.7 228.246 7.7H237.246C239.496 7.7 241.251 8.345 242.511 9.635C243.801 10.895 244.446 12.65 244.446 14.9V23.225H228.921V25.025C228.921 25.475 229.071 25.85 229.371 26.15C229.671 26.45 230.046 26.6 230.496 26.6C233.466 26.6 237.816 26.375 243.546 25.925V31.55Z" fill="white"/>
</g>
<defs>
<filter id="filter0_i_5_78" x="0.57196" y="0.0499878" width="243.874" height="36.4" filterUnits="userSpaceOnUse" color-interpolation-filters="sRGB">
<feFlood flood-opacity="0" result="BackgroundImageFix"/>
<feBlend mode="normal" in="SourceGraphic" in2="BackgroundImageFix" result="shape"/>
<feColorMatrix in="SourceAlpha" type="matrix" values="0 0 0 0 0 0 0 0 0 0 0 0 0 0 0 0 0 0 127 0" result="hardAlpha"/>
<feOffset dy="4"/>
<feGaussianBlur stdDeviation="2"/>
<feComposite in2="hardAlpha" operator="arithmetic" k2="-1" k3="1"/>
<feColorMatrix type="matrix" values="0 0 0 0 0 0 0 0 0 0 0 0 0 0 0 0 0 0 0.25 0"/>
<feBlend mode="normal" in2="shape" result="effect1_innerShadow_5_78"/>
</filter>
</defs>
</svg>
